<svg width="256" height="257" viewBox="0 0 256 257" fill="none" xmlns="http://www.w3.org/2000/svg">
<circle cx="128" cy="128.098" r="128" fill="white"/>
<circle cx="128" cy="128.098" r="128" fill="url(#paint0_radial_9267_28082)"/>
<path fill-rule="evenodd" clip-rule="evenodd" d="M69.8212 169.087C68.3072 171.68 70.1679 174.943 73.1656 174.951L96.3298 175.013L157.616 130.652L121.938 175.114L128.567 175.123L151.539 175.192L162.661 140.147L166.842 175.249L183.968 175.293C186.966 175.3 188.844 172.048 187.343 169.446L159.81 121.714L132.241 73.9148C130.748 71.3277 127.026 71.3182 125.521 73.8976L116.631 89.1297L145.279 110.323L108.897 102.302L97.6518 121.524L93.9813 127.848L151.057 119.4L80.9077 150.097L69.8212 169.087ZM167.81 115.234C169.315 115.568 170.198 117.137 169.705 118.601L165.396 131.396L154.351 112.249L167.81 115.234Z" fill="#35354A"/>
<defs>
<radialGradient id="paint0_radial_9267_28082" cx="0" cy="0" r="1" gradientUnits="userSpaceOnUse" gradientTransform="translate(37.614 216.799) rotate(-45.9276) scale(257.47)">
<stop stop-color="#BDBFFF"/>
<stop offset="1" stop-color="#CCF4ED"/>
</radialGradient>
</defs>
</svg>
