<svg width="181.5" height="244.5" viewBox="0 0 181.5 244.5" fill="none" xmlns="http://www.w3.org/2000/svg">
<circle cx="155.5" cy="52.5" r="23" fill="url(#paint0_linear_158_58)"/>
<circle cx="23.9227" cy="194.922" r="23" transform="rotate(-177.653 23.9227 194.922)" fill="url(#paint1_linear_158_58)"/>
<circle cx="93.75" cy="19.25" r="19.25" fill="url(#paint2_linear_158_58)"/>
<circle cx="79.5225" cy="224.022" r="19.25" transform="rotate(-177.653 79.5225 224.022)" fill="url(#paint3_linear_158_58)"/>
<circle cx="37.5" cy="39.5" r="16.5" fill="url(#paint4_linear_158_58)"/>
<circle cx="136.662" cy="211.662" r="16.5" transform="rotate(-177.653 136.662 211.662)" fill="url(#paint5_linear_158_58)"/>
<circle cx="14.25" cy="85.75" r="14.25" fill="url(#paint6_linear_158_58)"/>
<circle cx="166.321" cy="168.321" r="14.25" transform="rotate(-177.653 166.321 168.321)" fill="url(#paint7_linear_158_58)"/>
<circle cx="24.5" cy="132.5" r="13" fill="url(#paint8_linear_158_58)"/>
<circle cx="161.326" cy="121.625" r="13" transform="rotate(-177.653 161.326 121.625)" fill="url(#paint9_linear_158_58)"/>
<circle cx="50.25" cy="160.25" r="11.25" fill="url(#paint10_linear_158_58)"/>
<circle cx="135.734" cy="92.844" r="11.25" transform="rotate(-177.653 135.734 92.844)" fill="url(#paint11_linear_158_58)"/>
<circle cx="79.25" cy="171.75" r="8.25" fill="url(#paint12_linear_158_58)"/>
<circle cx="107.229" cy="80.1655" r="8.25" transform="rotate(-177.653 107.229 80.1655)" fill="url(#paint13_linear_158_58)"/>
<circle cx="103" cy="172.5" r="6.5" fill="url(#paint14_linear_158_58)"/>
<circle cx="83.5295" cy="78.4435" r="6.5" transform="rotate(-177.653 83.5295 78.4435)" fill="url(#paint15_linear_158_58)"/>
<circle cx="119.75" cy="168.75" r="3.75" fill="url(#paint16_linear_158_58)"/>
<circle cx="66.64" cy="81.5045" r="3.75" transform="rotate(-177.653 66.64 81.5045)" fill="url(#paint17_linear_158_58)"/>
<circle cx="132.25" cy="163.75" r="3.25" fill="url(#paint18_linear_158_58)"/>
<circle cx="53.946" cy="85.9885" r="3.25" transform="rotate(-177.653 53.946 85.9885)" fill="url(#paint19_linear_158_58)"/>
<defs>
<linearGradient id="paint0_linear_158_58" x1="155.5" y1="29.5" x2="155.5" y2="75.5" gradientUnits="userSpaceOnUse">
<stop stop-color="#365EAB"/>
<stop offset="1" stop-color="#2AB0C9"/>
</linearGradient>
<linearGradient id="paint1_linear_158_58" x1="23.9227" y1="171.922" x2="23.9227" y2="217.922" gradientUnits="userSpaceOnUse">
<stop stop-color="#365EAB"/>
<stop offset="1" stop-color="#2AB0C9"/>
</linearGradient>
<linearGradient id="paint2_linear_158_58" x1="93.75" y1="0" x2="93.75" y2="38.5" gradientUnits="userSpaceOnUse">
<stop stop-color="#365EAB"/>
<stop offset="1" stop-color="#2AB0C9"/>
</linearGradient>
<linearGradient id="paint3_linear_158_58" x1="79.5225" y1="204.772" x2="79.5225" y2="243.272" gradientUnits="userSpaceOnUse">
<stop stop-color="#365EAB"/>
<stop offset="1" stop-color="#2AB0C9"/>
</linearGradient>
<linearGradient id="paint4_linear_158_58" x1="37.5" y1="23" x2="37.5" y2="56" gradientUnits="userSpaceOnUse">
<stop stop-color="#365EAB"/>
<stop offset="1" stop-color="#2AB0C9"/>
</linearGradient>
<linearGradient id="paint5_linear_158_58" x1="136.662" y1="195.162" x2="136.662" y2="227.162" gradientUnits="userSpaceOnUse">
<stop stop-color="#365EAB"/>
<stop offset="1" stop-color="#2AB0C9"/>
</linearGradient>
<linearGradient id="paint6_linear_158_58" x1="14.25" y1="71.5" x2="14.25" y2="100" gradientUnits="userSpaceOnUse">
<stop stop-color="#365EAB"/>
<stop offset="1" stop-color="#2AB0C9"/>
</linearGradient>
<linearGradient id="paint7_linear_158_58" x1="166.321" y1="154.071" x2="166.321" y2="182.071" gradientUnits="userSpaceOnUse">
<stop stop-color="#365EAB"/>
<stop offset="1" stop-color="#2AB0C9"/>
</linearGradient>
<linearGradient id="paint8_linear_158_58" x1="24.5" y1="119.5" x2="24.5" y2="145.5" gradientUnits="userSpaceOnUse">
<stop stop-color="#365EAB"/>
<stop offset="1" stop-color="#2AB0C9"/>
</linearGradient>
<linearGradient id="paint9_linear_158_58" x1="161.326" y1="108.625" x2="161.326" y2="134.625" gradientUnits="userSpaceOnUse">
<stop stop-color="#365EAB"/>
<stop offset="1" stop-color="#2AB0C9"/>
</linearGradient>
<linearGradient id="paint10_linear_158_58" x1="50.25" y1="149" x2="50.25" y2="171.5" gradientUnits="userSpaceOnUse">
<stop stop-color="#365EAB"/>
<stop offset="1" stop-color="#2AB0C9"/>
</linearGradient>
<linearGradient id="paint11_linear_158_58" x1="135.734" y1="81.594" x2="135.734" y2="104.094" gradientUnits="userSpaceOnUse">
<stop stop-color="#365EAB"/>
<stop offset="1" stop-color="#2AB0C9"/>
</linearGradient>
<linearGradient id="paint12_linear_158_58" x1="79.25" y1="163.5" x2="79.25" y2="180" gradientUnits="userSpaceOnUse">
<stop stop-color="#365EAB"/>
<stop offset="1" stop-color="#2AB0C9"/>
</linearGradient>
<linearGradient id="paint13_linear_158_58" x1="107.229" y1="71.9155" x2="107.229" y2="88.4155" gradientUnits="userSpaceOnUse">
<stop stop-color="#365EAB"/>
<stop offset="1" stop-color="#2AB0C9"/>
</linearGradient>
<linearGradient id="paint14_linear_158_58" x1="103" y1="166" x2="103" y2="179" gradientUnits="userSpaceOnUse">
<stop stop-color="#365EAB"/>
<stop offset="1" stop-color="#2AB0C9"/>
</linearGradient>
<linearGradient id="paint15_linear_158_58" x1="83.5295" y1="71.9435" x2="83.5295" y2="84.9435" gradientUnits="userSpaceOnUse">
<stop stop-color="#365EAB"/>
<stop offset="1" stop-color="#2AB0C9"/>
</linearGradient>
<linearGradient id="paint16_linear_158_58" x1="119.75" y1="165" x2="119.75" y2="172.5" gradientUnits="userSpaceOnUse">
<stop stop-color="#365EAB"/>
<stop offset="1" stop-color="#2AB0C9"/>
</linearGradient>
<linearGradient id="paint17_linear_158_58" x1="66.64" y1="77.7545" x2="66.64" y2="85.2545" gradientUnits="userSpaceOnUse">
<stop stop-color="#365EAB"/>
<stop offset="1" stop-color="#2AB0C9"/>
</linearGradient>
<linearGradient id="paint18_linear_158_58" x1="132.25" y1="160.5" x2="132.25" y2="167" gradientUnits="userSpaceOnUse">
<stop stop-color="#365EAB"/>
<stop offset="1" stop-color="#2AB0C9"/>
</linearGradient>
<linearGradient id="paint19_linear_158_58" x1="53.946" y1="82.7385" x2="53.946" y2="89.7385" gradientUnits="userSpaceOnUse">
<stop stop-color="#365EAB"/>
<stop offset="1" stop-color="#2AB0C9"/>
</linearGradient>
</defs>
</svg>