<svg width="23pt" height="11pt" viewBox="0 0 23 11" xmlns="http://www.w3.org/2000/svg"><g id="fontsvg1739697306033" stroke-linecap="round" fill-rule="evenodd" fill="#ffffff"><path d="M 8.008 5.234 L 8.008 5.586 A 5.512 5.512 0 0 1 7.748 7.332 Q 7.214 8.938 5.579 9.749 A 5.891 5.891 0 0 1 5.195 9.922 A 4.876 4.876 0 0 1 4.047 10.169 A 5.961 5.961 0 0 1 3.477 10.195 L 1.25 10.195 Q 0 10.195 0 9.023 L 0 2.188 Q 0 1.26 0.469 0.977 A 0.771 0.771 0 0 1 0.68 0.88 Q 1.042 0.766 1.811 0.746 A 13.298 13.298 0 0 1 2.148 0.742 Q 5.42 0.742 5.898 1.484 A 4.266 4.266 0 0 1 7.284 2.72 Q 8.008 3.752 8.008 5.234 Z M 7.344 2.344 L 7.383 2.344 A 4.584 4.584 0 0 1 8.783 5.543 A 6.114 6.114 0 0 1 8.789 5.82 L 8.789 5.977 A 6.161 6.161 0 0 1 8.517 7.872 Q 7.822 10.027 5.352 10.82 A 11.503 11.503 0 0 1 4.74 10.916 Q 4.439 10.954 4.173 10.968 A 5.694 5.694 0 0 1 3.867 10.977 L 1.953 10.977 A 3.646 3.646 0 0 1 1.449 10.944 Q 0.853 10.861 0.56 10.56 A 0.925 0.925 0 0 1 0.43 10.391 L 0.43 10.313 L 0.469 10.313 A 2.623 2.623 0 0 0 0.784 10.395 Q 0.953 10.427 1.107 10.429 A 1.583 1.583 0 0 0 1.133 10.43 L 3.672 10.43 Q 6.262 10.43 7.527 8.31 A 6.423 6.423 0 0 0 8.008 7.305 A 6.949 6.949 0 0 0 8.275 5.639 A 7.932 7.932 0 0 0 8.281 5.313 A 5.187 5.187 0 0 0 7.461 2.525 A 6.321 6.321 0 0 0 7.344 2.344 Z M 17.832 1.992 L 17.832 9.219 A 3.152 3.152 0 0 1 17.776 9.838 Q 17.709 10.174 17.559 10.418 A 1.26 1.26 0 0 1 16.816 10.977 L 16.348 10.977 A 0.904 0.904 0 0 1 15.801 10.788 Q 15.67 10.692 15.549 10.546 A 1.973 1.973 0 0 1 15.488 10.469 L 15.449 10.391 L 15.488 10.391 A 12.319 12.319 0 0 0 15.658 10.421 Q 15.883 10.46 15.991 10.467 A 0.662 0.662 0 0 0 16.035 10.469 Q 17.031 10.469 17.257 9.342 A 2.954 2.954 0 0 0 17.285 9.18 Q 17.323 8.608 17.324 8.222 A 7.962 7.962 0 0 0 17.324 8.203 L 17.324 2.031 A 8.878 8.878 0 0 0 17.305 1.43 Q 17.285 1.127 17.242 0.87 A 3.504 3.504 0 0 0 17.129 0.391 A 1.605 1.605 0 0 1 17.459 0.658 A 1.066 1.066 0 0 1 17.754 1.406 A 0.038 0.038 0 0 1 17.784 1.434 Q 17.823 1.515 17.83 1.833 A 6.984 6.984 0 0 1 17.832 1.992 Z M 22.93 1.992 L 22.93 9.219 A 3.152 3.152 0 0 1 22.874 9.838 Q 22.806 10.174 22.657 10.418 A 1.26 1.26 0 0 1 21.914 10.977 L 21.445 10.977 A 0.904 0.904 0 0 1 20.898 10.788 Q 20.768 10.692 20.647 10.546 A 1.973 1.973 0 0 1 20.586 10.469 L 20.547 10.391 L 20.586 10.391 A 12.319 12.319 0 0 0 20.756 10.421 Q 20.981 10.46 21.089 10.467 A 0.662 0.662 0 0 0 21.133 10.469 Q 22.128 10.469 22.355 9.342 A 2.954 2.954 0 0 0 22.383 9.18 Q 22.421 8.608 22.422 8.222 A 7.962 7.962 0 0 0 22.422 8.203 L 22.422 2.031 A 8.878 8.878 0 0 0 22.403 1.43 Q 22.382 1.127 22.339 0.87 A 3.504 3.504 0 0 0 22.227 0.391 A 1.605 1.605 0 0 1 22.556 0.658 A 1.066 1.066 0 0 1 22.852 1.406 A 0.038 0.038 0 0 1 22.882 1.434 Q 22.921 1.515 22.928 1.833 A 6.984 6.984 0 0 1 22.93 1.992 Z M 15.957 0 L 16.074 0 Q 16.891 0.136 16.996 0.865 A 1.601 1.601 0 0 1 17.012 1.094 Q 17.045 1.094 17.05 1.345 A 4.963 4.963 0 0 1 17.051 1.445 L 17.051 8.789 Q 17.051 10.234 16.035 10.234 A 1.018 1.018 0 0 1 15.608 10.149 Q 15.273 9.996 15.098 9.57 A 0.903 0.903 0 0 1 15.037 9.385 Q 14.964 9.074 14.947 8.436 A 15.891 15.891 0 0 1 14.941 8.008 L 14.941 2.188 A 9.155 9.155 0 0 1 14.963 1.525 Q 15.069 0.078 15.684 0.078 A 0.041 0.041 0 0 1 15.706 0.044 Q 15.76 0.008 15.951 0 A 2.176 2.176 0 0 1 15.957 0 Z M 21.055 0 L 21.172 0 Q 21.989 0.136 22.094 0.865 A 1.601 1.601 0 0 1 22.109 1.094 Q 22.142 1.094 22.148 1.345 A 4.963 4.963 0 0 1 22.148 1.445 L 22.148 8.789 Q 22.148 10.234 21.133 10.234 A 1.018 1.018 0 0 1 20.706 10.149 Q 20.371 9.996 20.195 9.57 A 0.903 0.903 0 0 1 20.134 9.385 Q 20.062 9.074 20.044 8.436 A 15.891 15.891 0 0 1 20.039 8.008 L 20.039 2.188 A 9.155 9.155 0 0 1 20.061 1.525 Q 20.167 0.078 20.781 0.078 A 0.041 0.041 0 0 1 20.803 0.044 Q 20.858 0.008 21.049 0 A 2.176 2.176 0 0 1 21.055 0 Z M 12.227 3.359 L 12.266 3.359 Q 12.792 3.684 12.901 4.5 A 3.48 3.48 0 0 1 12.93 4.961 L 12.93 9.219 A 3.152 3.152 0 0 1 12.874 9.838 Q 12.806 10.174 12.657 10.418 A 1.26 1.26 0 0 1 11.914 10.977 L 11.445 10.977 A 0.904 0.904 0 0 1 10.898 10.788 Q 10.768 10.692 10.647 10.546 A 1.973 1.973 0 0 1 10.586 10.469 L 10.547 10.391 L 10.586 10.391 A 12.319 12.319 0 0 0 10.756 10.421 Q 10.981 10.46 11.089 10.467 A 0.662 0.662 0 0 0 11.133 10.469 Q 12.128 10.469 12.355 9.342 A 2.954 2.954 0 0 0 12.383 9.18 Q 12.421 8.608 12.422 8.222 A 7.962 7.962 0 0 0 12.422 8.203 L 12.422 5.078 Q 12.422 3.906 12.227 3.359 Z M 11.055 2.969 L 11.172 2.969 Q 12.148 2.969 12.148 4.414 L 12.148 8.789 Q 12.148 10.234 11.133 10.234 A 1.018 1.018 0 0 1 10.706 10.149 Q 10.371 9.996 10.195 9.57 A 0.903 0.903 0 0 1 10.134 9.385 Q 10.062 9.074 10.044 8.436 A 15.891 15.891 0 0 1 10.039 8.008 L 10.039 5.156 A 9.155 9.155 0 0 1 10.061 4.493 Q 10.167 3.047 10.781 3.047 A 0.041 0.041 0 0 1 10.803 3.013 Q 10.858 2.976 11.049 2.969 A 2.176 2.176 0 0 1 11.055 2.969 Z M 2.148 2.891 L 2.148 8.086 A 0.071 0.071 0 0 0 2.162 8.126 Q 2.18 8.152 2.222 8.179 A 0.504 0.504 0 0 0 2.266 8.203 L 3.008 8.203 A 3.9 3.9 0 0 0 4.043 8.078 Q 5.227 7.751 5.546 6.572 A 3.78 3.78 0 0 0 5.664 5.586 L 5.664 5.195 Q 5.664 2.87 3.108 2.777 A 5.982 5.982 0 0 0 2.891 2.773 L 2.266 2.773 A 0.071 0.071 0 0 0 2.225 2.787 Q 2.199 2.805 2.173 2.847 A 0.504 0.504 0 0 0 2.148 2.891 Z M 5 3.789 L 5 3.828 A 3.628 3.628 0 0 0 4.013 3.581 A 4.517 4.517 0 0 0 3.516 3.555 L 2.93 3.555 L 2.93 7.891 A 0.112 0.112 0 0 1 2.926 7.922 Q 2.916 7.956 2.881 7.965 A 0.115 0.115 0 0 1 2.852 7.969 L 2.5 7.969 A 0.112 0.112 0 0 1 2.469 7.965 Q 2.434 7.955 2.425 7.92 A 0.115 0.115 0 0 1 2.422 7.891 L 2.422 3.086 A 0.072 0.072 0 0 1 2.433 3.045 Q 2.452 3.017 2.503 3.01 A 0.27 0.27 0 0 1 2.539 3.008 Q 4.561 3.008 5 3.789 Z M 12.383 0.469 L 12.422 0.469 A 2.058 2.058 0 0 1 12.786 0.827 A 1.359 1.359 0 0 1 13.086 1.68 L 13.086 1.758 Q 13.086 2.527 12.416 2.949 A 2.294 2.294 0 0 1 12.07 3.125 L 12.031 3.125 Q 11.709 2.734 11.289 2.734 L 10.938 2.734 Q 10.847 2.734 10.622 2.801 A 4.577 4.577 0 0 0 10.586 2.813 Q 10.426 2.621 10.397 2.56 A 0.054 0.054 0 0 1 10.391 2.539 L 10.43 2.539 A 5.828 5.828 0 0 0 10.572 2.585 Q 10.767 2.644 10.864 2.654 A 0.34 0.34 0 0 0 10.898 2.656 L 11.328 2.656 A 1.038 1.038 0 0 0 12.148 2.26 Q 12.287 2.096 12.401 1.865 A 2.914 2.914 0 0 0 12.5 1.641 A 0.152 0.152 0 0 0 12.516 1.604 Q 12.547 1.507 12.578 1.211 A 1.099 1.099 0 0 0 12.559 1.017 Q 12.517 0.784 12.383 0.469 Z M 10.82 0.039 L 11.055 0 L 11.172 0 A 1.02 1.02 0 0 1 12.009 0.428 Q 12.137 0.592 12.239 0.819 A 2.79 2.79 0 0 1 12.305 0.977 L 12.305 1.367 A 0.9 0.9 0 0 1 11.936 2.099 Q 11.729 2.264 11.406 2.383 Q 11.364 2.416 11.193 2.421 A 2.177 2.177 0 0 1 11.133 2.422 L 11.094 2.422 A 2.169 2.169 0 0 1 10.625 2.306 Q 9.98 2.06 9.927 1.41 A 1.475 1.475 0 0 1 9.922 1.289 L 9.922 1.172 Q 9.922 0.403 10.771 0.058 A 2.427 2.427 0 0 1 10.82 0.039 Z" vector-effect="non-scaling-stroke"/></g></svg>